<svg xmlns="http://www.w3.org/2000/svg" viewBox="0 0 532.2 525.55"><defs><style>.cls-1{fill:#fce5d7;}.cls-2{fill:#303c90;}.cls-3{fill:#212148;}</style></defs><g id="Capa_2" data-name="Capa 2"><g id="Layer_4" data-name="Layer 4"><path class="cls-1" d="M52,303.89c1.86-69.72,2.79-104.59,10.18-126.78C82.86,115.08,141,82.66,164,69.89c59.51-33.16,115.4-32.11,140.87-31.31,29.36.93,83.63,2.65,137,39.92,41.7,29.14,61.27,65.28,75.13,91.56,19.83,37.6,56.54,107.23,28.18,163.57-17.42,34.61-51.67,48.86-79.05,60.26-65.44,27.24-131.91,15.66-262.17-8.61-100.56-18.74-143.63-36.1-151-66.52C51.84,314.71,51.83,311.85,52,303.89Z" transform="translate(-31.54 -17.33)"/></g><path class="cls-2" d="M338,416.85c39.38-18.94,47.33-30.61,45-38.09-6.51-21.25-103.89-35.16-130.26-7.82a25.66,25.66,0,0,0-7.12,16l63,45.56" transform="translate(-31.54 -17.33)"/><path class="cls-2" d="M294.74,376.55s36.52-17,47.89-8.32,23.89,35.31,23.89,35.31l-54-8.22" transform="translate(-31.54 -17.33)"/><path class="cls-2" d="M360.76,388.4c21.06,21.35-63.57-15.69-56.28-16L187.93,421.28V522.59l6.36,4.75,119.46,8.42,99.24-10,.75-.1.68-.13,38.06-44.7Z" transform="translate(-31.54 -17.33)"/><path class="cls-3" d="M420.32,190.54c5.71,0,10.57.07,15.43,0,4-.08,5.79,1.63,6.07,5.78,1.47,21.8,2.89,43.61,4.84,65.36,1.54,17.19,3.67,34.33,5.95,51.44.36,2.73,2.4,5.6,4.41,7.69,7.9,8.22,16.2,16.07,24.14,24.27,2.32,2.39,4.18,3.33,7.54,2,14-5.68,28.18-11,42.21-16.69a5.5,5.5,0,0,0,2.89-3.71c7.18-61.75-1.15-120.4-36.45-173.08-36.43-54.38-86.87-88.65-151-102.25C297.75,41,250.12,45,204.5,64.39c-57.76,24.54-99.89,65.86-126.13,123.05C63.19,220.52,58,255.56,58.12,291.64c0,2.91,0,5.82,0,8.78,11.92,2.83,23.59,5.65,35.29,8.35,7.78,1.8,14.32,5.27,18.35,12.53,1.8,3.24,4.18,2.79,6.31.48a75.91,75.91,0,0,0,6.44-8c5.23-7.48,9.77-15.51,15.57-22.51,7.6-9.16,8.55-19.2,7.72-30.49-1.41-19.18-1.85-38.43-2.44-57.66-.23-7.27.76-8.1,8.07-8.37,3.53-.13,7.09.28,11.55.49V127.8c12.91,0,24.94-.09,37,0,8.65.09,17.29.6,25.93.66,3.69,0,5.3,1.31,5.36,5.1.21,15.64.59,31.28.88,46.92.07,4.36,0,8.72,0,13.55h21.18c0,8-.26,15.65,0,23.24,1,23.95,2,47.9,3.37,71.82.39,7,1.95,13.85,3,20.76a5.45,5.45,0,0,0,1.09,2.65c10.67,12.06,15.63,26.4,17.33,42.15a6.91,6.91,0,0,0,2.8,4.45c7.12,4.57,14.44,8.84,21.67,13.24,6.57,4,6.84,10.83-.08,14.68-6.22,3.44-13.06,5.84-19.78,8.26-19.14,6.91-38.45,13.33-57.48,20.53-5.35,2-10.34,5.57-14.78,9.27-5.5,4.59-5.24,11.43.88,15.27,9.63,6.06,19.88,11.12,29.81,16.71,5.24,3,10.65,5.73,15.49,9.26,9.78,7.16,10.29,15.71,1.84,24.36-9.49,9.73-21.11,16.47-33.34,21.89-11.73,5.2-23.88,9.52-36.05,13.59a14.6,14.6,0,0,1-10.1-1c-41-20.45-74.13-49.93-100.53-87.24-19.63-27.73-34-58-41.21-91.11C28.18,295.5,27.82,244.07,46,194.05c22.09-60.7,60.9-108,117-140.57C214,24,268.93,12.09,327.18,19.45c84.3,10.66,150,52,196.36,123.52a244.37,244.37,0,0,1,37,100c7,49.85,3.08,98.45-16.9,145.24-25.24,59.1-65.42,104.55-122.23,135a18.14,18.14,0,0,1-7.08,2.4l3.95-5.74c8.42-12.23,7.81-23.59-.71-35.66-10.33-14.62-25.55-20.79-41.71-25.36-24.28-6.86-48.67-13.29-73-19.92-1.57-.43-3.1-1-4.64-1.53-3.26-1.09-6.8-1.93-7.33-6.17a9.09,9.09,0,0,1,5-9.36c7.42-4.06,15-7.78,22.71-11.3,11.69-5.35,23.69-10,35.2-15.72,7.53-3.71,8.94-7.26,6.46-15.21-1.71-5.49-4.14-11.18-7.73-15.57-8.54-10.47-17.67-20.5-27.13-30.15-5.5-5.61-7.55-11.58-7.12-19.31,1.55-27.81,2.73-55.64,3.92-83.46.48-11.41.8-22.83.81-34.24,0-5.07,2.17-6.71,6.83-6.37,4,.29,8.12.38,12.94.59V109.65h77.53Zm-63.25-53v21.25h13.6V137.56Zm36.07,20.27h13.47V137.75H393.14Zm-170.88-5.35H209.2v17h13.06Zm-33.7,17.15V152.36H176.77v17.27Z" transform="translate(-31.54 -17.33)"/><path class="cls-2" d="M414.13,525.6c-122.57,39.13-233.25-.42-233.25-.42Z" transform="translate(-31.54 -17.33)"/></g></svg>